 <svg
    width="15"
    height="15"
    viewBox="0 0 15 15"
    fill="none"
    xmlns="http://www.w3.org/2000/svg"
>
    <circle cx="7.5" cy="7.5" r="7.5" fill="#696969"></circle>
    <path
    d="M8.89119 7.76636C9.25884 7.47711 9.52718 7.08045 9.6589 6.63159C9.79062 6.18272 9.77916 5.70396 9.62611 5.26191C9.47306 4.81986 9.18603 4.4365 8.80496 4.16518C8.4239 3.89385 7.96773 3.74805 7.49994 3.74805C7.03214 3.74805 6.57598 3.89385 6.19491 4.16518C5.81384 4.4365 5.52682 4.81986 5.37377 5.26191C5.22072 5.70396 5.20926 6.18272 5.34097 6.63159C5.47269 7.08045 5.74104 7.47711 6.10869 7.76636C5.47872 8.01875 4.92905 8.43736 4.51827 8.97758C4.1075 9.51779 3.85102 10.1593 3.77619 10.8339C3.77077 10.8831 3.77511 10.9329 3.78895 10.9805C3.80279 11.0281 3.82586 11.0725 3.85685 11.1111C3.91944 11.1892 4.01048 11.2392 4.10994 11.2501C4.20939 11.261 4.30912 11.232 4.38718 11.1694C4.46525 11.1069 4.51525 11.0158 4.52619 10.9164C4.60853 10.1833 4.95807 9.50629 5.50802 9.01466C6.05797 8.52302 6.76978 8.25124 7.50744 8.25124C8.2451 8.25124 8.95691 8.52302 9.50686 9.01466C10.0568 9.50629 10.4063 10.1833 10.4887 10.9164C10.4989 11.0085 10.5429 11.0936 10.6121 11.1552C10.6814 11.2169 10.771 11.2507 10.8637 11.2501H10.9049C11.0032 11.2388 11.0931 11.1891 11.1549 11.1118C11.2167 11.0346 11.2455 10.936 11.2349 10.8376C11.1597 10.1612 10.9019 9.51798 10.489 8.97693C10.0761 8.43589 9.52378 8.01741 8.89119 7.76636V7.76636ZM7.49994 7.50011C7.20327 7.50011 6.91326 7.41213 6.66658 7.24731C6.41991 7.08249 6.22765 6.84822 6.11412 6.57413C6.00059 6.30004 5.97088 5.99844 6.02876 5.70747C6.08664 5.4165 6.2295 5.14923 6.43928 4.93945C6.64906 4.72967 6.91633 4.58681 7.2073 4.52893C7.49827 4.47105 7.79987 4.50076 8.07396 4.61429C8.34805 4.72782 8.58232 4.92008 8.74714 5.16675C8.91196 5.41343 8.99994 5.70344 8.99994 6.00011C8.99994 6.39793 8.8419 6.77946 8.5606 7.06077C8.27929 7.34207 7.89776 7.50011 7.49994 7.50011Z"
    fill="#BBBBBB"
    ></path>
</svg>