<?xml version="1.0" standalone="no"?><!DOCTYPE svg PUBLIC "-//W3C//DTD SVG 1.1//EN" "http://www.w3.org/Graphics/SVG/1.1/DTD/svg11.dtd"><svg t="1639731535584" class="icon" viewBox="0 0 1024 1024" version="1.1" xmlns="http://www.w3.org/2000/svg" p-id="40369" xmlns:xlink="http://www.w3.org/1999/xlink" width="25" height="25"><defs><style type="text/css"></style></defs><path d="M512 200.533333c-160 0-292.266667 130.133333-292.266667 292.266667S352 785.066667 512 785.066667c160 0 292.266667-130.133333 292.266667-292.266667 0-160-130.133333-292.266667-292.266667-292.266667z m140.8 386.133334c-38.4 49.066667-83.2 74.666667-132.266667 74.666666h-2.133333c-81.066667 0-142.933333-72.533333-145.066667-74.666666-6.4-8.533333-6.4-21.333333 2.133334-29.866667 8.533333-6.4 21.333333-6.4 29.866666 2.133333 0 0 51.2 59.733333 113.066667 59.733334h2.133333c34.133333 0 68.266667-21.333333 98.133334-59.733334 6.4-8.533333 21.333333-10.666667 29.866666-4.266666 8.533333 10.666667 10.666667 23.466667 4.266667 32z" fill="#ffffff" p-id="40370"></path><path d="M544 885.333333m-32 0a32 32 0 1 0 64 0 32 32 0 1 0-64 0Z" fill="#ffffff" p-id="40371"></path><path d="M951.466667 439.466667c-17.066667-19.2-42.666667-36.266667-68.266667-44.8C838.4 228.266667 686.933333 110.933333 512 110.933333S185.6 230.4 142.933333 398.933333c-29.866667 10.666667-53.333333 23.466667-70.4 42.666667-21.333333 23.466667-29.866667 53.333333-27.733333 89.6 2.133333 29.866667 10.666667 55.466667 29.866667 74.666667 14.933333 17.066667 34.133333 29.866667 59.733333 40.533333 10.666667 4.266667 21.333333 6.4 32 8.533333H170.666667c10.666667 0 19.2-6.4 21.333333-17.066666 2.133333-10.666667-6.4-23.466667-17.066667-23.466667-8.533333-2.133333-17.066667-4.266667-23.466666-6.4-19.2-6.4-32-17.066667-42.666667-27.733333-12.8-12.8-17.066667-29.866667-19.2-49.066667-4.266667-27.733333 2.133333-46.933333 17.066667-64 14.933333-17.066667 40.533333-27.733333 59.733333-32h2.133333c2.133333 0 2.133333-2.133333 4.266667-2.133333 0 0 2.133333 0 2.133333-2.133334 4.266667-2.133333 6.4-6.4 8.533334-12.8 32-153.6 170.666667-264.533333 328.533333-264.533333 160 0 294.4 108.8 330.666667 264.533333v2.133334c0 2.133333 2.133333 4.266667 2.133333 4.266666l2.133333 2.133334 2.133334 2.133333c2.133333 0 2.133333 2.133333 4.266666 2.133333 0 0 2.133333 0 2.133334 2.133334 23.466667 6.4 46.933333 19.2 59.733333 36.266666 12.8 17.066667 19.2 36.266667 19.2 59.733334 0 19.2-6.4 36.266667-19.2 49.066666-10.666667 12.8-25.6 21.333333-42.666667 27.733334-4.266667 2.133333-8.533333 2.133333-12.8 2.133333-10.666667-2.133333-21.333333 4.266667-23.466666 14.933333-2.133333 8.533333-64 213.333333-281.6 236.8v46.933334c4.266667-2.133333 6.4-4.266667 8.533333-6.4C772.266667 874.666667 853.333333 699.733333 872.533333 648.533333c4.266667 0 10.666667-2.133333 17.066667-4.266666 25.6-10.666667 44.8-23.466667 59.733333-40.533334 17.066667-21.333333 27.733333-46.933333 29.866667-74.666666 2.133333-34.133333-8.533333-64-27.733333-89.6z" fill="#ffffff" p-id="40372"></path></svg>