<?xml version="1.0" standalone="no"?><!DOCTYPE svg PUBLIC "-//W3C//DTD SVG 1.1//EN" "http://www.w3.org/Graphics/SVG/1.1/DTD/svg11.dtd"><svg t="1639726698367" class="icon" viewBox="0 0 1024 1024" version="1.1" xmlns="http://www.w3.org/2000/svg" p-id="31852" xmlns:xlink="http://www.w3.org/1999/xlink" width="200" height="200"><defs><style type="text/css"></style></defs><path d="M1024 452.48 1024 525.504 900.352 525.504 900.352 574.4 792.384 496.448 792.384 646.4 759.04 646.4 759.04 331.52 792.384 331.52 792.384 481.472 900.352 403.52 900.352 452.48Z" p-id="31853" fill="#ffffff"></path><path d="M725.76 277.76l0 522.24L0 800 0 277.76l362.88 284.16L725.76 277.76zM640.512 734.72 640.512 707.84 444.288 707.84l0 26.944L640.512 734.784zM640.512 673.28 640.512 646.4 444.288 646.4l0 26.88L640.512 673.28zM640.512 614.72l0-26.88L444.288 587.84l0 26.88L640.512 614.72z" p-id="31854" fill="#ffffff"></path><path d="M725.76 224 362.88 512 0 224Z" p-id="31855" fill="#ffffff"></path></svg>