<?xml version="1.0" standalone="no"?><!DOCTYPE svg PUBLIC "-//W3C//DTD SVG 1.1//EN" "http://www.w3.org/Graphics/SVG/1.1/DTD/svg11.dtd"><svg t="1639731466972" class="icon" viewBox="0 0 1024 1024" version="1.1" xmlns="http://www.w3.org/2000/svg" p-id="40180" xmlns:xlink="http://www.w3.org/1999/xlink" width="25" height="25"><defs><style type="text/css"></style></defs><path d="M1024 321.6 1024 1024 0 1024 0 321.6 511.936 672.768Z" p-id="40181" fill="#ffffff"></path><path d="M944.192 0l0 321.6L515.456 618.88l-428.8-297.28L86.656 0l301.12 0 255.232 0L944.192 0zM784.768 369.728 784.768 328.512 197.632 328.512l0 41.28L784.768 369.792zM784.768 292.032 784.768 250.752 197.632 250.752l0 41.28L784.768 292.032zM418.432 206.144 418.432 164.928l-220.8 0 0 41.216L418.432 206.144zM418.432 128.448 418.432 87.168l-220.8 0 0 41.28L418.432 128.448z" p-id="40182" fill="#ffffff"></path></svg>