<?xml version="1.0" standalone="no"?><!DOCTYPE svg PUBLIC "-//W3C//DTD SVG 1.1//EN" "http://www.w3.org/Graphics/SVG/1.1/DTD/svg11.dtd"><svg t="1639726395237" class="icon" viewBox="0 0 1024 1024" version="1.1" xmlns="http://www.w3.org/2000/svg" p-id="25681" xmlns:xlink="http://www.w3.org/1999/xlink" width="200" height="200"><defs><style type="text/css"></style></defs><path d="M346.80155 0h469.783092c7.50902 0 11.263531 3.83984 11.263531 11.391525v175.950002c0 7.67968-3.83984 11.391525-11.263531 11.391526H402.009916c-7.551685 0-11.306196 3.83984-11.306195 11.51952v191.608016c1.91992 7.67968 5.75976 11.51952 11.34886 11.51952h367.643348c7.637015 0 11.476855 3.83984 11.476855 11.51952v169.891588c0 7.67968-3.83984 11.51952-11.476855 11.51952H402.30857c-5.717095 0-9.42894 3.83984-11.34886 11.51952V810.63289c0 7.637015 3.83984 11.476855 11.306196 11.476855h428.611474c5.75976 0 9.556935 3.199867 11.51952 8.959627a175.182034 175.182034 0 0 1 0 84.945794 147.236532 147.236532 0 0 1-23.03904 51.069872c-10.836882 15.956668-28.71347 29.396108-52.989792 40.275655-24.95896 10.836882-54.952377 16.596642-89.425607 16.596642H187.704179c-7.59435 0-11.34886-3.882505-11.34886-11.476855V170.531561c0-47.230032 16.596642-87.548352 49.66193-120.698971C259.253198 16.596642 299.400858 0 346.80155 0z" fill="#ffffff" p-id="25682"></path></svg>