<?xml version="1.0" standalone="no"?><!DOCTYPE svg PUBLIC "-//W3C//DTD SVG 1.1//EN" "http://www.w3.org/Graphics/SVG/1.1/DTD/svg11.dtd"><svg t="1642563390165" class="icon" viewBox="0 0 1024 1024" version="1.1" xmlns="http://www.w3.org/2000/svg" p-id="2150" xmlns:xlink="http://www.w3.org/1999/xlink" width="25" height="25"><defs><style type="text/css"></style></defs><path d="M613.952 64a64 64 0 0 1 56.768 34.464L719.36 192H928a96 96 0 0 1 96 96v576a96 96 0 0 1-96 96H96a96 96 0 0 1-96-96V288a96 96 0 0 1 96-96h240.64l48.64-93.536A64 64 0 0 1 442.048 64h171.904zM512 288a288 288 0 1 0 0 576 288 288 0 0 0 0-576z m0 96a192 192 0 1 1 0 384 192 192 0 0 1 0-384z" p-id="2151" fill="#2c2c2c"></path><path d="M192 96h32a64 64 0 0 1 64 64H128a64 64 0 0 1 64-64z" p-id="2152" fill="#2c2c2c"></path></svg>