<?xml version="1.0" standalone="no"?><!DOCTYPE svg PUBLIC "-//W3C//DTD SVG 1.1//EN" "http://www.w3.org/Graphics/SVG/1.1/DTD/svg11.dtd"><svg t="1639733261643" class="icon" viewBox="0 0 1024 1024" version="1.1" xmlns="http://www.w3.org/2000/svg" p-id="44818" xmlns:xlink="http://www.w3.org/1999/xlink" width="25" height="25"><defs><style type="text/css"></style></defs><path d="M646.065903 105.810884c16.053628 3.497661 29.310559 12.066827 39.766702 25.672706 10.492982 13.605879 16.438391 30.534434 17.838274 50.785663 0 6.29538 0.349971 16.053628 1.048889 29.345352 0.699941 13.255908 1.048889 27.211758 1.048889 41.866526s-0.559748 27.910677-1.608637 39.802518-2.937912 19.202341-5.735631 22.00006c-4.197602 4.89652-8.218172 7.170307-12.032034 6.785543-3.847631-0.349971-5.806239 1.573845-5.806239 5.771447 0 2.098801-0.490164 9.444093-1.539053 22.00006s-4.021593 30.009478-8.918114 52.359508c-2.76395 11.857049-6.785543 22.525016-12.032034 31.933293-5.212722 9.444093-10.66899 17.977443-16.228613 25.672706-6.995321 8.359388-13.956873 16.053628-20.952194 23.048949-0.699941 9.05933-1.048889 17.802458-1.048889 26.161846l0 22.00006c0 7.659447 0.349971 13.605879 1.048889 17.802458 0.699941 8.394181 2.797719 14.304797 6.29538 17.802458s10.459213 6.64535 20.915355 9.408277c3.497661 1.39886 9.79304 3.497661 18.887163 6.29538 9.060353 2.797719 19.866467 6.435573 32.458249 10.982122 12.55699 4.546549 25.638937 9.269108 39.243793 14.165628 13.640672 4.861728 26.721595 9.583263 39.313378 14.130835 12.521175 4.546549 23.714098 8.744151 33.507138 12.55699 9.759271 3.847631 17.068747 6.820336 21.965268 8.919137 13.990642 6.960529 23.223934 14.304797 27.771507 21.965268 4.546549 7.695263 8.534374 17.453511 12.032034 29.345352 1.39886 6.29538 3.323699 17.802458 5.77247 34.55705 2.411933 16.753569 5.070482 34.20708 7.868201 52.359508 2.76395 18.152429 5.036713 35.255968 6.785543 51.310619s2.973728 26.197662 3.637854 30.394241c0.735757 9.05933-0.839111 16.753569-4.686742 23.048949-3.847631 6.260587-12.730952 11.157107-26.721595 14.619976-11.856026 2.797719-29.100782 5.806239-51.834552 8.919137-22.664186 3.14769-49.036833 6.085602-79.046311 8.884344s-63.027475 5.071506-98.983385 6.855128c-35.95591 1.679245-73.79982 2.587941-113.603361 2.587941-39.802518 0-77.856205-0.699941-114.162086-2.098801s-69.672826-3.322675-100.032274-5.771447c-30.359448-2.412956-57.221236-5.246491-80.620156-8.359388-23.39892-3.14769-41.726334-6.470365-55.018058-9.933233-2.762927-0.734734-6.260587-2.133593-10.423397-4.197602-4.197602-2.098801-8.219195-4.721535-12.066827-7.869225-3.847631-3.112897-6.820336-6.995321-8.919137-11.507078-2.098801-4.546549-2.762927-9.618055-2.098801-15.179724 0.699941-4.89652 2.65855-15.914458 5.806239-33.017998s6.785543-35.430954 10.982122-54.982242 8.009418-37.879726 11.541871-54.982242c3.462868-17.10354 5.910617-27.735691 7.310499-31.933293 2.762927-8.359388 6.820336-17.10354 12.032034-26.161846 5.246491-9.094122 14.165628-18.502399 26.686802-28.29544 6.29538-4.861728 17.838274-10.108219 34.55705-15.70468 16.788361-5.596462 34.20708-10.80816 52.394301-15.70468 18.117636-4.89652 35.255968-9.094122 51.310619-12.55699 16.053628-3.497661 26.546609-5.946432 31.444153-7.345292 10.423397-2.098801 19.691481-4.721535 27.700899-7.869225 8.04421-3.14769 12.066827-7.484462 12.066827-13.080923l0-60.718897c-7.659447-6.29538-15.004739-13.255908-22.00006-20.951171-6.29538-6.29538-12.55699-13.780865-18.85237-22.525016-6.260587-8.744151-11.857049-17.977443-16.753569-27.771507-9.758248-18.85237-16.053628-36.130895-18.817578-51.834552-2.797719-15.70468-4.546549-24.937972-5.246491-27.735691s-3.357468-5.071506-7.869225-6.785543c-4.546549-1.783623-7.869225-5.456269-9.968026-11.017938-5.561669-11.857049-8.184403-24.448832-7.834432-37.70474s1.223874-32.108279 2.587941-56.55711c2.098801-24.413016 6.15621-47.812959 12.066827-70.161966s19.027355-42.951231 39.278585-61.803601c10.492982-9.05933 24.413016-16.543791 41.901319-22.490224 17.453511-5.946432 35.255968-10.317996 53.373605-13.115716 18.187221-2.762927 35.465746-4.197602 51.869345-4.197602 16.402575 0 28.78458 1.048889 37.178761 3.14769 9.094122 2.797719 16.404622 5.771447 21.965268 8.919137 5.596462 3.14769 9.969049 6.085602 13.116739 8.884344 3.14769 2.833535 5.770424 5.421476 7.868201 7.869225s4.197602 4.371564 6.261611 5.771447c3.497661 2.762927 8.04421 3.672646 13.604856 2.622734C622.31599 102.174054 632.075261 103.013165 646.065903 105.810884L646.065903 105.810884zM847.143525 222.072795c9.759271 1.39886 17.628496 6.260587 23.540136 14.68956 5.946432 8.359388 9.268084 18.502399 9.967002 30.324656 0 3.497661 0.349971 9.269108 1.048889 17.313318s1.048889 16.228613 1.048889 24.588001c0 8.394181-0.349971 16.228613-1.048889 23.573905s-1.74883 11.682064-3.14769 13.080923c-2.797719 2.797719-5.420453 4.022617-7.868201 3.672646-2.413979-0.349971-3.673669 0.873903-3.673669 3.672646 0 1.39886-0.140193 5.735631-0.490164 13.080923s-2.308579 17.977443-5.770424 31.933293c-1.434675 6.960529-3.497661 13.290701-6.261611 18.85237-2.832512 5.596462-5.946432 10.492982-9.444093 14.654768-3.497661 4.89652-7.695263 9.444093-12.591783 13.640672-0.699941 5.561669-1.048889 10.80816-1.048889 15.70468l0 24.064069c0.699941 4.89652 2.098801 8.394181 4.197602 10.492982s6.29538 3.847631 12.591783 5.246491c2.76395 0.699941 9.4093 2.762927 19.866467 6.260587 10.492982 3.497661 21.825075 7.520277 34.066887 12.066827 12.208043 4.511757 23.540136 8.709359 33.997302 12.55699 10.492982 3.847631 17.838274 6.820336 22.034852 8.919137 8.360412 4.161786 14.130835 8.534374 17.278525 13.046131 3.14769 4.546549 5.386684 10.667967 6.785543 18.362206 0.699941 3.462868 1.74883 10.108219 3.14769 19.866467 1.39886 9.79304 2.797719 20.286022 4.197602 31.444153s2.797719 21.265326 4.197602 30.359448 2.098801 15.039531 2.098801 17.802458c0.665149 5.596462-0.209778 10.283204-2.65855 14.165628-2.411933 3.812839-7.834432 6.435573-16.228613 7.834432-6.959505 1.39886-16.018835 3.14769-27.211758 5.246491s-25.846668 3.812839-44.00012 5.246491c-1.39886-8.394181-3.497661-16.403598-6.29538-24.098861-2.098801-6.995321-4.510734-14.304797-7.309476-22.00006-2.76395-7.695263-6.29538-14.304797-10.459213-19.901259-7.695263-10.458189-15.739473-18.85237-24.097838-25.14775-8.360412-6.260587-16.754592-11.507078-25.148773-15.70468-8.358365-4.197602-16.752546-7.484462-25.112957-9.933233-8.394181-2.448772-16.788361-5.071506-25.146727-7.869225-35.57217-12.55699-64.216557-21.300119-85.86767-26.161846-21.649066-4.89652-33.857109-9.094122-36.654828-12.55699-1.39886-2.098801-2.272763-4.546549-2.622734-7.380084-0.349971-2.762927-0.525979-5.910617-0.525979-9.373485 0-3.497661 0.349971-7.345292 1.048889-11.541871 9.79304-2.797719 17.104563-4.546549 22.001083-5.246491 4.860704-0.699941 8.708336-1.39886 11.506055-2.098801 5.596462-1.39886 10.842952-2.972705 15.739473-4.686742 4.89652-1.783623 7.311523-4.371564 7.311523-7.869225l0-36.654828-6.29538-3.14769c-1.36509-0.699941-2.76395-2.448772-4.16281-5.211698 4.16281-9.094122 8.360412-19.901259 12.55699-32.493042 3.461845-11.157107 7.169283-24.762987 10.982122-40.817638 3.847631-16.089443 7.169283-35.255968 9.967002-57.605999 2.098801-17.453511 3.497661-33.157167 4.197602-47.14781 0.699941-13.921058 1.048889-26.161846 1.048889-36.654828L742.424508 200.107527c8.360412-1.39886 17.278525-2.133593 26.687826-2.133593 9.407254 0 16.928554 0.734734 22.4892 2.133593 11.891841 3.462868 19.027355 6.960529 21.475104 10.458189s5.106298 6.260587 7.90504 8.359388c2.76395 1.39886 5.735631 1.923816 8.884344 1.573845S838.749344 220.672912 847.143525 222.072795L847.143525 222.072795zM274.302855 199.057615c-11.192923-1.433652-22.384823-1.783623-33.507138-1.084705-9.79304 0.734734-20.461007 2.448772-31.968086 5.246491-11.541871 2.797719-22.175045 7.695263-31.968086 14.68956-8.359388 5.561669-14.969946 12.20702-19.866467 19.866467-4.89652 7.695263-8.534374 15.529695-10.982122 23.573905-2.448772 8.009418-4.057409 15.529695-4.756327 22.525016-0.699941 6.960529-1.048889 12.55699-1.048889 16.753569-0.699941 9.05933-1.39886 17.278525-2.064009 24.588001-0.734734 7.345292-0.349971 13.815657 1.014096 19.377326 1.39886 5.596462 2.483564 9.444093 3.14769 11.541871 0.699941 2.098801 2.098801 3.812839 4.197602 5.246491 2.098801 1.364067 3.847631 2.238994 5.246491 2.587941s2.797719 5.071506 4.197602 14.165628c0.699941 9.05933 2.972705 17.942651 6.785543 26.686802 3.847631 8.709359 7.869225 15.879666 12.066827 21.475104 2.064009 3.497661 4.721535 6.785543 7.869225 9.933233s6.085602 6.470365 8.884344 9.968026 6.29538 6.960529 10.458189 10.458189l0 30.359448c-0.699941 4.197602-2.273786 7.695263-4.721535 10.492982s-7.135514 4.861728-14.130835 6.29538c-3.497661 0.664126-9.233292 2.064009-17.278525 4.161786s-16.718777 4.371564-26.161846 6.820336c-9.444093 2.412956-18.85237 5.036713-28.29544 7.869225-9.408277 2.762927-16.928554 5.211698-22.490224 7.310499-20.286022 9.758248-32.458249 26.546609-36.654828 50.260707-2.797719 11.192923-5.946432 25.14775-9.444093 41.901319s-5.946432 28.64541-7.345292 35.605939-1.189082 14.304797 0.559748 22.00006 7.484462 12.55699 17.278525 14.654768c4.89652 1.39886 10.982122 2.412956 18.327414 3.14769 7.345292 0.699941 14.479783 1.74883 21.475104 3.14769 7.659447 1.364067 15.669888 2.412956 24.064069 3.14769 1.39886-8.394181 3.497661-16.788361 6.29538-25.14775 2.098801-7.695263 5.036713-15.389502 8.884344-23.048949 3.847631-7.695263 8.534374-15.004739 14.130835-22.00006 5.596462-6.260587 12.416797-12.382005 20.426215-18.327414 8.04421-5.910617 15.879666-11.682064 23.573905-17.278525 8.394181-6.29538 17.453511-12.20702 27.211758-17.802458l3.847631-2.412956 20.705578-9.79304 12.101619-4.511757 12.591783-3.14769c1.39886 0 3.497661-0.734734 6.260587-2.133593 1.39886-0.699941 2.797719-1.014096 4.197602-1.014096l24.658609-5.036713 13.046131-3.357468c3.462868-0.699941 6.610558-1.39886 9.408277-2.098801s5.946432-1.39886 9.444093-2.098801l10.492982-2.098801c7.624654-1.39886 14.130835-2.797719 19.34151-4.161786 5.246491-1.39886 8.219195-4.89652 8.919137-10.492982 0-2.797719 0.140193-5.036713 0.524956-6.785543 0.315178-1.74883 0.524956-3.357468 0.524956-4.721535l0-3.14769c-6.29538-2.098801-12.241812-4.197602-17.838274-6.29538l-14.619976-4.161786c-4.89652-1.39886-8.744151-2.833535-11.541871-4.197602-5.596462-2.098801-8.744151-5.071506-9.444093-8.919137-0.699941-3.812839-1.014096-8.884344-1.014096-15.179724l0-10.458189c0-3.497661 0.315178-6.995321 1.014096-10.492982 0-3.497661 0.384763-7.695263 1.048889-12.55699-5.596462-8.394181-11.122315-17.453511-16.718777-27.246551-4.89652-8.359388-9.618055-17.977443-14.165628-28.785603-4.511757-10.80816-8.219195-22.175045-10.982122-34.032094-3.497661-16.053628-5.910617-33.157167-7.310499-51.310619-1.39886-18.187221-1.74883-34.55705-1.048889-49.246611C271.155165 232.879931 272.204054 215.776392 274.302855 199.057615L274.302855 199.057615zM274.302855 199.057615" p-id="44819" fill="#ffffff"></path></svg>