<?xml version="1.0" standalone="no"?><!DOCTYPE svg PUBLIC "-//W3C//DTD SVG 1.1//EN" "http://www.w3.org/Graphics/SVG/1.1/DTD/svg11.dtd"><svg t="1639799796841" class="icon" viewBox="0 0 1024 1024" version="1.1" xmlns="http://www.w3.org/2000/svg" p-id="6098" xmlns:xlink="http://www.w3.org/1999/xlink" width="25" height="25"><defs><style type="text/css"></style></defs><path d="M64 640a21.333333 21.333333 0 0 1-21.333333-21.333333v-213.333334a21.333333 21.333333 0 0 1 42.666666 0v213.333334a21.333333 21.333333 0 0 1-21.333333 21.333333zM192 810.666667a21.333333 21.333333 0 0 1-21.333333-21.333334v-554.666666a21.333333 21.333333 0 0 1 42.666666 0v554.666666a21.333333 21.333333 0 0 1-21.333333 21.333334zM320 981.333333a21.333333 21.333333 0 0 1-21.333333-21.333333v-896a21.333333 21.333333 0 0 1 42.666666 0v896a21.333333 21.333333 0 0 1-21.333333 21.333333zM448 938.666667a21.333333 21.333333 0 0 1-21.333333-21.333334v-810.666666a21.333333 21.333333 0 0 1 42.666666 0v810.666666a21.333333 21.333333 0 0 1-21.333333 21.333334zM576 768a21.333333 21.333333 0 0 1-21.333333-21.333333v-469.333334a21.333333 21.333333 0 0 1 42.666666 0v469.333334a21.333333 21.333333 0 0 1-21.333333 21.333333zM704 938.666667a21.333333 21.333333 0 0 1-21.333333-21.333334v-810.666666a21.333333 21.333333 0 0 1 42.666666 0v810.666666a21.333333 21.333333 0 0 1-21.333333 21.333334zM832 768a21.333333 21.333333 0 0 1-21.333333-21.333333v-469.333334a21.333333 21.333333 0 0 1 42.666666 0v469.333334a21.333333 21.333333 0 0 1-21.333333 21.333333zM960 640a21.333333 21.333333 0 0 1-21.333333-21.333333v-213.333334a21.333333 21.333333 0 0 1 42.666666 0v213.333334a21.333333 21.333333 0 0 1-21.333333 21.333333z" p-id="6099" fill="#ffffff"></path></svg>