<?xml version="1.0" standalone="no"?><!DOCTYPE svg PUBLIC "-//W3C//DTD SVG 1.1//EN" "http://www.w3.org/Graphics/SVG/1.1/DTD/svg11.dtd"><svg t="1622257787768" class="icon" viewBox="0 0 1024 1024" version="1.1" xmlns="http://www.w3.org/2000/svg" p-id="30954" xmlns:xlink="http://www.w3.org/1999/xlink" width="32" height="32"><defs><style type="text/css"></style></defs><path d="M342.272 256a42.666667 42.666667 0 1 1 0-85.333333h339.456a42.666667 42.666667 0 0 1 0 85.333333H342.272z m470.784 0a42.666667 42.666667 0 0 1 0-85.333333H938.666667a85.333333 85.333333 0 0 1 85.333333 85.333333v640a85.333333 85.333333 0 0 1-85.333333 85.333333H85.333333a85.333333 85.333333 0 0 1-85.333333-85.333333V256a85.333333 85.333333 0 0 1 85.333333-85.333333h128.725334a42.666667 42.666667 0 1 1 0 85.333333H85.333333v640h853.333334V256h-125.610667z" p-id="30955" fill="#ffffff"></path><path d="M298.666667 128a42.666667 42.666667 0 1 1 85.333333 0v170.666667a42.666667 42.666667 0 1 1-85.333333 0V128z m341.333333 0a42.666667 42.666667 0 0 1 85.333333 0v170.666667a42.666667 42.666667 0 0 1-85.333333 0V128z m36.309333 303.36a42.666667 42.666667 0 1 1 59.306667 61.312l-273.621333 263.338667a42.666667 42.666667 0 0 1-60.501334-1.152l-133.632-141.44a42.666667 42.666667 0 0 1 61.610667-59.050667l104.021333 110.506667 242.773334-233.514667h0.042666z" p-id="30956" fill="#ffffff"></path></svg>