<?xml version="1.0" standalone="no"?><!DOCTYPE svg PUBLIC "-//W3C//DTD SVG 1.1//EN" "http://www.w3.org/Graphics/SVG/1.1/DTD/svg11.dtd"><svg t="1622256942142" class="icon" viewBox="0 0 1024 1024" version="1.1" xmlns="http://www.w3.org/2000/svg" p-id="6419" xmlns:xlink="http://www.w3.org/1999/xlink" width="32" height="32"><defs><style type="text/css"></style></defs><path d="M454.943 95.887V13.653A13.653 13.653 0 0 1 468.596 0h81.92a13.653 13.653 0 0 1 13.653 13.653v81.995C723.135 99.28 850.89 229.28 850.89 389.12v418.57l98.065 75.804a13.653 13.653 0 0 1-8.349 24.453H78.507a13.653 13.653 0 0 1-8.35-24.453l104.892-81.08V389.12c0-157.546 124.11-286.106 279.894-293.233z m-20.48 853.02h157.013C574.027 994.352 545.37 1024 512.97 1024s-61.057-29.648-78.506-75.093z" p-id="6420" fill="#ffffff"></path></svg>