<?xml version="1.0" standalone="no"?><!DOCTYPE svg PUBLIC "-//W3C//DTD SVG 1.1//EN" "http://www.w3.org/Graphics/SVG/1.1/DTD/svg11.dtd"><svg t="1622257905081" class="icon" viewBox="0 0 1024 1024" version="1.1" xmlns="http://www.w3.org/2000/svg" p-id="33966" xmlns:xlink="http://www.w3.org/1999/xlink" width="32" height="32"><defs><style type="text/css"></style></defs><path d="M512 307.2a61.44 61.44 0 1 1 0-122.88 61.44 61.44 0 0 1 0 122.88zM122.88 348.16a61.44 61.44 0 1 1 0-122.88 61.44 61.44 0 0 1 0 122.88z m778.24 0a61.44 61.44 0 1 1 0-122.88 61.44 61.44 0 0 1 0 122.88z m-211.84512 192.43008l154.76736-148.5824c8.192-7.86432 21.7088-8.04864 30.14656-0.4096a19.0464 19.0464 0 0 1 5.98016 18.432L803.5328 745.2672c-12.5952 55.05024-64.7168 94.4128-125.05088 94.4128H345.4976c-60.33408 0-112.45568-39.36256-125.05088-94.4128L143.83104 410.0096c-2.4576-10.73152 4.89472-21.2992 16.384-23.57248 7.168-1.4336 14.62272 0.67584 19.74272 5.57056l154.76736 148.5824c16.40448 15.74912 43.39712 16.09728 60.27264 0.77824 3.54304-3.19488 6.4512-6.9632 8.6016-11.10016l89.25184-170.92608c5.14048-9.87136 17.89952-13.98784 28.4672-9.17504 4.3008 1.9456 7.76192 5.18144 9.8304 9.17504l89.25184 170.92608c10.30144 19.7632 35.81952 27.9552 56.97536 18.35008 4.44416-2.02752 8.45824-4.73088 11.89888-8.02816z" p-id="33967" fill="#ffffff"></path></svg>