<?xml version="1.0" standalone="no"?><!DOCTYPE svg PUBLIC "-//W3C//DTD SVG 1.1//EN" "http://www.w3.org/Graphics/SVG/1.1/DTD/svg11.dtd"><svg t="1622257489650" class="icon" viewBox="0 0 1024 1024" version="1.1" xmlns="http://www.w3.org/2000/svg" p-id="19763" xmlns:xlink="http://www.w3.org/1999/xlink" width="32" height="32"><defs><style type="text/css"></style></defs><path d="M927.176151 0h-511.551327a96.001132 96.001132 0 0 0-95.915874 95.915874v191.831747a31.971958 31.971958 0 0 0 63.943916 0v-191.831747a31.971958 31.971958 0 0 1 31.971958-31.971958h511.551327a31.971958 31.971958 0 0 1 31.971958 31.971958v511.295551a32.270363 32.270363 0 0 1-32.227734 32.227734h-63.68814a31.84407 31.84407 0 0 0-22.593517 9.378441l-137.266273 137.266272v-114.672756a31.971958 31.971958 0 0 0-31.971958-31.971957h-127.887831a31.971958 31.971958 0 0 0 0 63.943915h95.915873v159.85979a31.971958 31.971958 0 0 0 54.565475 22.593517l182.453307-182.453307h50.473064a96.299537 96.299537 0 0 0 96.171649-96.171649V95.915874c0-52.902933-43.05557-95.915874-95.915873-95.915874z" p-id="19764" fill="#ffffff"></path><path d="M895.246822 351.691537c0-26.472781-21.485156-47.957937-47.957937-47.957937h-0.042629A47.957937 47.957937 0 1 0 895.246822 351.691537zM527.611935 399.649474a47.957937 47.957937 0 0 0-0.042629-95.915874h-0.042629a47.957937 47.957937 0 0 0 0.085258 95.915874z" p-id="19765" fill="#ffffff"></path><path d="M687.386466 351.691537m-47.957937 0a47.957937 47.957937 0 1 0 95.915874 0 47.957937 47.957937 0 1 0-95.915874 0Z" p-id="19766" fill="#ffffff"></path><path d="M287.736992 735.355032c96.938976 0 175.845769-78.906792 175.845769-175.845768S384.675969 383.663495 287.736992 383.663495s-175.845769 78.906792-175.845769 175.845769 78.906792 175.845769 175.845769 175.845768z m0-287.747621c61.684564 0 111.901853 50.217289 111.901853 111.901853S349.421556 671.411116 287.736992 671.411116s-111.901853-50.217289-111.901853-111.901852S226.052428 447.607411 287.736992 447.607411z" p-id="19767" fill="#ffffff"></path><path d="M249.072238 738.040677A290.689041 290.689041 0 0 0 0.287776 986.867768a31.971958 31.971958 0 0 0 27.410625 35.936481 31.673553 31.673553 0 0 0 35.936481-27.453255 226.659867 226.659867 0 0 1 193.963211-193.963211 226.446721 226.446721 0 0 1 254.19838 193.963211 31.971958 31.971958 0 1 0 63.347106-8.525855c-21.272009-158.410394-167.49043-270.056471-326.071341-248.784462z" p-id="19768" fill="#ffffff"></path></svg>