<?xml version="1.0" standalone="no"?><!DOCTYPE svg PUBLIC "-//W3C//DTD SVG 1.1//EN" "http://www.w3.org/Graphics/SVG/1.1/DTD/svg11.dtd"><svg t="1622256872701" class="icon" viewBox="0 0 1024 1024" version="1.1" xmlns="http://www.w3.org/2000/svg" p-id="3938" xmlns:xlink="http://www.w3.org/1999/xlink" width="32" height="32"><defs><style type="text/css"></style></defs><path d="M65.951061 195.409528l64.47443 0 0 574.035892-64.47443 0 0-574.035892Z" p-id="3939" fill="#ffffff"></path><path d="M444.202894 445.1208 193.161325 447.167412 193.161325 259.883959 444.202894 257.837346Z" p-id="3940" fill="#ffffff"></path><path d="M508.677325 254.767428l193.423291 0 0 67.545372-193.423291 0 0-67.545372Z" p-id="3941" fill="#ffffff"></path><path d="M511.748267 384.740618l193.424314 0 0 60.380182-193.424314 0 0-60.380182Z" p-id="3942" fill="#ffffff"></path><path d="M699.03172 577.044412 193.161325 579.091024 193.161325 511.033999 699.03172 508.987387Z" p-id="3943" fill="#ffffff"></path><path d="M701.07731 703.947683 193.161325 708.040908 193.161325 640.495536 701.07731 636.402311Z" p-id="3944" fill="#ffffff"></path><path d="M769.647011 831.873238 128.685871 833.91985 128.685871 772.515339 769.647011 770.468726Z" p-id="3945" fill="#ffffff"></path><path d="M769.562077 193.58088 128.600937 195.627493 128.600937 134.222981 769.562077 132.176368Z" p-id="3946" fill="#ffffff"></path><path d="M839.647295 205.643614l52.193733 0 0 46.053895-52.193733 0 0-46.053895Z" p-id="3947" fill="#ffffff"></path><path d="M950.381305 266.008446 892.526643 252.762771 824.910663 548.081777 824.910663 190.291974 763.506151 190.291974 763.506151 764.327866 824.910663 764.327866 824.910663 762.173806 836.189543 764.756631Z" p-id="3948" fill="#ffffff"></path></svg>