<?xml version="1.0" standalone="no"?><!DOCTYPE svg PUBLIC "-//W3C//DTD SVG 1.1//EN" "http://www.w3.org/Graphics/SVG/1.1/DTD/svg11.dtd"><svg t="1620199376665" class="icon" viewBox="0 0 1024 1024" version="1.1" xmlns="http://www.w3.org/2000/svg" p-id="1600" xmlns:xlink="http://www.w3.org/1999/xlink" width="32" height="32"><defs><style type="text/css"></style></defs><path d="M677.973333 905.173333a42.666667 42.666667 0 0 1-33.237333-78.592 342.954667 342.954667 0 0 0 181.802667-181.76 42.666667 42.666667 0 0 1 78.634666 33.194667 428.288 428.288 0 0 1-227.2 227.157333z m132.992-697.6l2.730667 2.730667A424.832 424.832 0 0 1 938.666667 512a42.666667 42.666667 0 0 1-85.333334 0 339.84 339.84 0 0 0-71.68-209.322667L302.677333 781.653333A339.84 339.84 0 0 0 512 853.333333a42.666667 42.666667 0 0 1 0 85.333334C276.352 938.666667 85.333333 747.648 85.333333 512S276.352 85.333333 512 85.333333a425.301333 425.301333 0 0 1 298.965333 122.24zM242.346667 721.322667L721.322667 242.346667A341.333333 341.333333 0 0 0 242.346667 721.322667z" p-id="1601" fill="#ffffff"></path></svg>