<?xml version="1.0" standalone="no"?><!DOCTYPE svg PUBLIC "-//W3C//DTD SVG 1.1//EN" "http://www.w3.org/Graphics/SVG/1.1/DTD/svg11.dtd"><svg t="1622257074550" class="icon" viewBox="0 0 1024 1024" version="1.1" xmlns="http://www.w3.org/2000/svg" p-id="17584" xmlns:xlink="http://www.w3.org/1999/xlink" width="32" height="32"><defs><style type="text/css"></style></defs><path d="M832 32a32 32 0 0 1 32 32v405.856a192 192 0 1 0-326.208 202.4c-69.152 28.768-118.08 73.696-121.6 122.144L416 800v128H192a32 32 0 0 1-32-32V64a32 32 0 0 1 32-32h640z m-128 672c120.704 0 219.104 40.896 223.808 92.16L928 800v64a64 64 0 0 1-64 64H544a64 64 0 0 1-64-64v-64l0.192-3.84C484.896 744.864 583.296 704 704 704z m0-256a112 112 0 1 1 0 224 112 112 0 0 1 0-224z m-256-128h-128a32 32 0 0 0-3.744 63.776L320 384h128a32 32 0 0 0 0-64z m64-128h-192a32 32 0 0 0-3.744 63.776L320 256h192a32 32 0 0 0 0-64z" fill="#ffffff" p-id="17585"></path></svg>