<?xml version="1.0" standalone="no"?><!DOCTYPE svg PUBLIC "-//W3C//DTD SVG 1.1//EN" "http://www.w3.org/Graphics/SVG/1.1/DTD/svg11.dtd"><svg t="1620097135868" class="icon" viewBox="0 0 1024 1024" version="1.1" xmlns="http://www.w3.org/2000/svg" p-id="27586" xmlns:xlink="http://www.w3.org/1999/xlink" width="32" height="32"><defs><style type="text/css"></style></defs><path d="M681.813333 361.984c0-105.301333-83.285333-190.976-185.685333-190.976-102.4 0-185.685333 85.674667-185.685333 190.976 0 71.808 38.784 134.4 95.872 166.997333-112.042667 41.386667-192.384 151.68-192.384 280.96a20.48 20.48 0 0 0 20.138666 20.736 20.437333 20.437333 0 0 0 20.181334-20.736c0-141.696 112.085333-257.024 249.898666-257.024 1.706667 0 3.328-0.256 4.864-0.682666 96.384-6.826667 172.8-89.429333 172.8-190.293334z m-185.685333 149.504c-80.170667 0-145.365333-67.072-145.365333-149.504 0-82.474667 65.194667-149.504 145.365333-149.504s145.365333 67.029333 145.365333 149.504c0 82.432-65.194667 149.504-145.365333 149.504z m38.613333 108.288a20.48 20.48 0 0 0 20.181334 20.693333h236.202666a20.437333 20.437333 0 0 0 20.138667-20.693333 20.437333 20.437333 0 0 0-20.138667-20.736h-236.202666a20.48 20.48 0 0 0-20.181334 20.736z m256.384 64h-236.202666a20.48 20.48 0 0 0-20.181334 20.736 20.48 20.48 0 0 0 20.181334 20.693333h236.202666a20.437333 20.437333 0 0 0 20.138667-20.693333 20.437333 20.437333 0 0 0-20.138667-20.736z m0 95.104h-236.202666a20.48 20.48 0 0 0-20.181334 20.693333 20.48 20.48 0 0 0 20.181334 20.736h236.202666a20.437333 20.437333 0 0 0 20.138667-20.736 20.437333 20.437333 0 0 0-20.138667-20.693333z" fill="#8a8a8a" p-id="27587"></path></svg>